<svg width="235" height="225" viewBox="0 0 235 225" fill="none" xmlns="http://www.w3.org/2000/svg">
<g clip-path="url(#clip0_1_207)">
<path d="M117.503 0C57.5772 0 8.99893 48.5209 8.99893 108.37V223.447H226.001V108.37C226.001 48.5209 177.423 0 117.503 0Z" fill="#F4F0ED"/>
<path d="M25.6177 110.466H64.8243C64.8243 110.466 65.8466 106.339 61.4483 105.121C61.4483 105.121 62.4388 100.302 58.4132 97.9566C54.393 95.6111 50.9638 99.4245 50.9638 99.4245C50.9638 99.4245 48.7327 93.7337 41.8264 95.5048C36.3738 96.9035 36.246 102.552 36.246 102.552C36.246 102.552 33.4771 101.1 30.6017 102.552C28.1896 103.77 27.9446 106.722 27.9446 106.722C27.9446 106.722 23.5197 107.514 25.623 110.46L25.6177 110.466Z" fill="white"/>
<path d="M173.328 108.854H212.535C212.535 108.854 213.557 104.727 209.159 103.509C209.159 103.509 210.149 98.6905 206.124 96.345C202.103 93.9996 198.674 97.8129 198.674 97.8129C198.674 97.8129 196.443 92.1221 189.537 93.8932C184.084 95.292 183.956 100.94 183.956 100.94C183.956 100.94 181.187 99.4883 178.312 100.94C175.9 102.158 175.655 105.11 175.655 105.11C175.655 105.11 171.23 105.902 173.333 108.849L173.328 108.854Z" fill="white"/>
<path d="M82.3908 33.0654H121.597C121.597 33.0654 122.62 28.9382 118.222 27.7202C118.222 27.7202 119.212 22.9017 115.186 20.5562C111.166 18.2107 107.737 22.0241 107.737 22.0241C107.737 22.0241 105.506 16.3333 98.5996 18.1044C93.147 19.5031 93.0192 25.1514 93.0192 25.1514C93.0192 25.1514 90.2503 23.6994 87.3749 25.1514C84.9627 26.3693 84.7178 29.3211 84.7178 29.3211C84.7178 29.3211 80.2929 30.1189 82.3962 33.06L82.3908 33.0654Z" fill="white"/>
<path d="M77.2897 112.498C77.934 117.502 77.0767 123.119 75.7135 127.783" stroke="black" stroke-miterlimit="10"/>
<path d="M156.917 144.674C155.447 144.77 152.125 145.206 152.258 146.27C152.391 147.334 155.692 150.073 155.692 150.073C155.692 150.073 153.323 157.173 153.722 158.636C154.121 160.098 155.692 163.821 155.692 163.821C155.692 163.821 150.927 176.883 149.862 182.915C148.797 188.946 148.797 196.663 148.797 196.663C148.797 196.663 146.001 209.167 145.868 211.693C145.735 214.214 142.939 216.113 143.206 217.559C143.472 219.006 147.204 219.272 149.862 220.735C152.519 222.197 156.518 223.314 164.372 222.756C172.226 222.197 216.821 222.756 216.821 222.756C216.821 222.756 222.146 221.931 221.88 220.469C221.613 219.006 219.35 216.496 219.35 216.496C219.35 216.496 221.747 207.172 218.951 200.391C216.155 193.61 214.691 190.286 214.691 190.286C214.691 190.286 213.759 181.112 213.227 177.256C212.694 173.4 210.564 164.528 210.564 164.528C210.564 164.528 213.227 159.306 213.227 157.976C213.227 156.646 212.162 151.461 212.162 151.461C212.162 151.461 213.36 148.536 212.961 147.738C212.561 146.94 206.837 147.871 206.837 147.871C206.837 147.871 197.785 147.738 189.931 146.009C182.077 144.281 167.167 144.015 156.917 144.68V144.674Z" fill="#E5D6CC"/>
<path d="M208.168 150.44C209.478 149.472 202.311 150.174 196.629 149.286C190.948 148.397 186.07 146.536 177.902 146.095C169.739 145.653 159.798 145.297 158.642 146.095C157.487 146.892 161.571 149.621 169.649 150.073C177.726 150.525 186.597 151.413 191.124 151.679C195.65 151.945 205.767 152.211 208.163 150.44H208.168Z" fill="#C4B2A9"/>
<path d="M156.427 162.848C156.427 162.848 163.616 164.975 177.551 165.949C191.486 166.922 208.701 164.396 208.701 164.396" stroke="#C4B2A9" stroke-width="0.75" stroke-miterlimit="10"/>
<path d="M157.226 164.529L178.435 166.007" stroke="#C4B2A9" stroke-width="0.75" stroke-miterlimit="10"/>
<path d="M186.155 164.528C186.155 164.528 200.532 164.709 208.695 162.05" stroke="#C4B2A9" stroke-width="0.75" stroke-miterlimit="10"/>
<path d="M195.298 151.057C195.298 151.057 193.259 149.637 191.214 149.461C189.175 149.286 187.487 150.073 187.487 150.073C187.487 150.073 186.155 148.488 182.961 147.956C179.766 147.424 176.661 148.477 176.661 148.477C176.661 148.477 176.486 147.424 173.466 146.961C170.447 146.499 168.317 148.132 168.317 148.132C168.317 148.132 166.629 146.536 164.324 147.068C163.168 147.334 162.524 148.089 162.167 148.775C164.02 149.387 166.539 149.897 169.649 150.073C177.726 150.525 186.597 151.413 191.124 151.679C194.244 151.86 200.016 152.046 204.089 151.562C199.925 149.227 195.298 151.057 195.298 151.057Z" fill="#4F3749"/>
<path d="M207.524 150.791C207.524 150.791 208.434 150.998 208.701 151.87C208.967 152.743 210.564 157.886 210.564 158.859C210.564 159.832 206.656 164.672 206.656 164.672C206.656 164.672 207.987 173.4 208.61 178.803C209.233 184.207 209.324 189.791 209.409 190.946C209.499 192.1 213.578 201.492 214.026 203.976C214.468 206.46 214.292 214.257 214.026 215.145C213.759 216.033 216.597 220.197 216.331 220.905C216.065 221.612 215 222.729 215 222.729" stroke="#C4B2A9" stroke-width="0.75" stroke-miterlimit="10"/>
<path d="M122.833 221.713C122.833 222.399 122.274 222.958 121.587 222.958H90.4047C89.7178 222.958 89.1587 222.399 89.1587 221.713C89.1587 221.027 89.7178 220.469 90.4047 220.469H121.587C122.274 220.469 122.833 221.027 122.833 221.713Z" fill="#46283D"/>
<path d="M92.9446 202.912L92.2045 211.023C92.2045 211.023 89.409 217.006 90.0746 220.463H122.023C122.023 220.463 121.89 217.804 120.958 216.74C120.027 215.677 113.371 214.214 113.371 214.214L103.387 208.896L102.189 202.115L92.9446 202.912Z" fill="#E5B370"/>
<path d="M91.5708 212.523C91.5708 212.523 96.4164 215.416 98.1896 220.469" stroke="#CE9149" stroke-miterlimit="10"/>
<path d="M115.048 214.613C115.048 214.613 112.838 216.033 112.572 220.463" stroke="#CE9149" stroke-miterlimit="10"/>
<path d="M97.3962 202.529C97.3962 202.529 99.2545 209.294 100.41 210.491C101.566 211.688 107.774 215.145 108.663 215.145C109.553 215.145 112.061 213.517 112.061 213.517" stroke="#CE9149" stroke-miterlimit="10"/>
<path d="M109.952 212.395C109.952 212.395 108.296 211.465 105.996 215.145" stroke="white" stroke-width="2" stroke-linecap="round" stroke-linejoin="round"/>
<path d="M106.976 210.81C106.976 210.81 105.602 209.545 102.497 213.72" stroke="white" stroke-width="2" stroke-linecap="round" stroke-linejoin="round"/>
<path d="M104.031 209.241C104.031 209.241 103.072 207.874 99.9201 211.512" stroke="white" stroke-width="2" stroke-linecap="round" stroke-linejoin="round"/>
<path d="M102.998 206.731C102.998 206.731 102.141 205.221 98.1896 208.545" stroke="white" stroke-width="2" stroke-linecap="round" stroke-linejoin="round"/>
<path d="M24.6432 222.958C25.2556 222.958 25.7508 222.463 25.7508 221.852C25.7508 221.24 25.2556 220.745 24.6432 220.745H16.4377L13.6102 194.695C13.6102 194.695 13.2162 191.871 13.2961 191.084C13.3759 190.297 11.2354 189.111 10.6869 190.839C10.1385 192.568 9.5261 198.774 9.76039 201.838C9.99468 204.896 10.1278 204.896 9.70714 206.938C9.28648 208.981 8.18424 214.395 8.26412 215.177C8.34399 215.964 11.8797 222.958 12.7423 222.958H24.6379H24.6432Z" fill="#46283D"/>
<path d="M26.262 193.052C26.262 193.052 22.6198 192.19 21.5335 191.679C20.4473 191.169 14.6752 190.462 13.2961 191.089C11.9169 191.717 11.8051 201.604 12.2364 204.157C12.6677 206.704 10.4686 214.629 10.7029 215.336C11.2513 216.985 13.4931 220.75 14.3184 220.75H24.0522C25.2769 220.75 25.0692 218.426 24.0522 217.235C23.0351 216.044 20.7987 214.044 20.7987 214.044C20.7987 214.044 21.7412 210.278 22.4494 209.103C23.1576 207.928 27.9872 202.747 27.9872 202.747L30.6976 202.981V193.802L26.2567 193.057L26.262 193.052Z" fill="#E5B370"/>
<path d="M20.7987 214.044C19.5048 213.533 15.0266 215.102 14.3184 220.75" stroke="#CE9149" stroke-miterlimit="10"/>
<path d="M12.0501 201.912C12.0501 201.912 19.0043 198.168 21.5336 191.679" stroke="#CE9149" stroke-miterlimit="10"/>
<path d="M30.6976 199.487C30.6976 199.487 25.4739 199.881 24.9255 200.274C24.377 200.668 18.7327 209.209 18.4185 210.124C18.1044 211.039 21.4537 211.714 21.4537 211.714" stroke="#CE9149" stroke-miterlimit="10"/>
<path d="M21.9595 210.198C21.9595 210.198 22.5133 208.981 18.4185 207.725" stroke="white" stroke-width="2" stroke-linecap="round" stroke-linejoin="round"/>
<path d="M23.5144 207.725C23.5144 207.725 24.7444 206.497 20.197 204.875" stroke="white" stroke-width="2" stroke-linecap="round" stroke-linejoin="round"/>
<path d="M25.7508 205.598C25.7508 205.598 26.3472 203.8 21.9862 202.231" stroke="white" stroke-width="2" stroke-linecap="round" stroke-linejoin="round"/>
<path d="M27.1885 203.609C27.1885 203.609 28.2535 200.742 24.5474 199.487" stroke="white" stroke-width="2" stroke-linecap="round" stroke-linejoin="round"/>
<path d="M22.9766 153.982C22.9766 153.982 16.3206 165.815 16.853 171.134C17.3855 176.453 24.9734 182.17 30.2982 185.228C35.623 188.286 46.9915 193.637 46.9915 193.637C46.9915 193.637 28.0724 191.414 27.2897 191.679C26.5069 191.945 25.3461 201.7 27.0767 204.625C27.0767 204.625 40.016 209.124 52.5293 214.618C62.7263 219.091 78.4824 223.564 81.4111 222.899C84.3397 222.234 90.8679 211.959 90.8679 209.566C90.8679 207.172 82.721 194.009 69.6858 180.979L92.1991 172.203C92.1991 172.203 91.5335 202.253 92.1991 203.848C92.8647 205.444 101.651 206.375 103.248 203.582C104.846 200.79 114.696 157.444 115.495 153.987C116.294 150.53 112.433 143.616 110.17 142.951C107.907 142.286 82.2151 146.009 56.2567 158.508L22.9766 153.987V153.982Z" fill="#409996"/>
<path d="M46.9915 193.637C58.3866 199.599 73.9989 207.933 74.8775 208.364C75.9585 208.896 76.6081 212.884 76.6081 212.884" stroke="#31726D" stroke-width="0.75" stroke-miterlimit="10"/>
<path d="M92.1992 172.198C92.3323 166.48 92.5985 158.901 93.5304 157.705C94.4622 156.508 98.9883 151.456 98.9883 151.456" stroke="#31726D" stroke-width="0.75" stroke-miterlimit="10"/>
<path d="M95.5964 156.902C95.5964 156.902 99.2545 153.056 102.183 151.461" stroke="#31726D" stroke-width="0.75" stroke-miterlimit="10"/>
<path d="M75.7135 207.3C75.7135 207.3 77.9553 210.358 78.6209 212.087" stroke="#31726D" stroke-width="0.75" stroke-miterlimit="10"/>
<path d="M69.6912 180.973C60.5218 171.932 42.4601 156.896 42.4601 156.896" stroke="#31726D" stroke-width="0.75" stroke-miterlimit="10"/>
<path d="M30.0319 154.939C30.0319 154.939 26.5761 166.48 28.3067 169.937C30.0373 173.394 58.1257 193.339 61.5868 195.865C65.0479 198.392 76.672 208.624 77.1725 209.433C77.6731 210.241 75.3088 208.204 75.7827 209.693C76.2513 211.188 75.4313 210.225 74.3663 209.693C73.3014 209.162 26.2673 196.796 26.2673 196.796" stroke="#31726D" stroke-width="0.75" stroke-miterlimit="10"/>
<path d="M36.4483 155.812C36.4483 155.812 40.5005 166.491 40.0213 167.411C38.7167 169.89 35.9318 176.841 35.9318 176.841" stroke="#31726D" stroke-width="0.75" stroke-miterlimit="10"/>
<path d="M60.9318 172.831C60.9318 172.831 83.3014 164.114 92.9446 159.71" stroke="#31726D" stroke-width="0.75" stroke-miterlimit="10"/>
<path d="M95.8999 154.939C96.4856 156.003 98.7913 152.716 98.8924 153.812C98.9936 154.907 95.8999 205.237 95.8999 205.237" stroke="#31726D" stroke-width="0.75" stroke-miterlimit="10"/>
<path d="M130.405 121.47C130.405 121.47 130.655 118.896 133.12 117.901C137.822 116.008 138.956 112.955 139.803 112.609C141.677 111.849 140.942 115.199 138.743 117.906C137.157 119.858 148.216 118.789 149.84 120.071C151.464 121.347 142.636 121.028 142.087 121.842C141.534 122.656 150.948 122.475 152.029 123.47C153.115 124.464 142.54 124.645 142.135 125.4C141.731 126.161 149.995 126.225 150.335 127.145C150.676 128.065 143.195 127.171 142.748 127.762C142.3 128.352 147.625 129.027 147.939 130.203C148.253 131.378 135.772 129.16 130.698 127.809L123.541 128.139L122.806 121.082L130.405 121.47Z" fill="#CE8565"/>
<path d="M130.538 119.81C127.609 119.412 100.852 119.677 98.9883 119.013C97.1246 118.348 79.0362 105.839 74.8775 104.121C70.7242 102.403 66.7039 103.6 62.2417 103.876C57.7795 104.153 52.0554 104.387 52.0554 104.387C52.0554 104.387 44.8136 105.849 40.5538 112.497C36.2939 119.146 29.771 139.489 28.4398 141.616C27.1086 143.744 17.6571 159.699 18.0564 161.162C18.4558 162.624 26.5761 169.937 36.9595 169.937C47.3429 169.937 54.8775 165.151 56.1661 163.156C57.4547 161.162 61.0543 151.722 61.4537 150.525C61.853 149.328 68.9084 140.154 71.7039 136.697C72.9979 135.096 74.5421 131.793 75.7188 127.783C79.1959 130.16 87.1992 135.122 93.6688 135.367C102.188 135.692 131.209 129.65 131.209 129.65C132.673 126.06 130.543 119.81 130.543 119.81H130.538Z" fill="#E5B370"/>
<path d="M53.8605 110.37C57.721 115.423 63.312 121.406 67.8381 119.544C72.1832 117.757 67.9606 107.541 64.5367 103.669C63.7859 103.754 63.0192 103.828 62.2417 103.876C57.7796 104.153 52.0554 104.387 52.0554 104.387C52.0554 104.387 51.4537 104.509 50.4952 104.844C50.852 105.839 51.7252 107.572 53.8658 110.37H53.8605Z" fill="white"/>
<path d="M39.3504 165.284C26.3046 166.082 19.7657 156.896 19.7657 156.896C18.6581 159.077 17.934 160.736 18.0511 161.162C18.4505 162.625 26.5708 169.937 36.9542 169.937C47.3376 169.937 54.8722 165.151 56.1608 163.156C56.5495 162.555 57.1512 161.274 57.8115 159.747C54.1054 161.848 47.5772 164.784 39.3504 165.284Z" fill="white"/>
<path d="M128.115 130.277C130.043 129.894 131.209 129.65 131.209 129.65C132.673 126.06 130.543 119.81 130.543 119.81C130.027 119.741 128.77 119.688 127.045 119.651C127.694 121.927 128.695 126.315 128.12 130.272L128.115 130.277Z" fill="white"/>
<path d="M55.7295 94.8134C55.7295 94.8134 54.6645 102.153 52.5346 105.44C52.5346 105.44 58.3014 115.024 63.6049 117.151C68.9084 119.279 67.5772 112.63 65.3994 107.578L67.3057 98.0471L55.7295 94.8081V94.8134Z" fill="#CE8565"/>
<path d="M55.6337 96.0367C57.5187 98.3822 61.8424 103.318 65.1811 103.722C65.6124 103.775 66.0064 103.722 66.3578 103.605L67.311 98.0525L55.7348 94.8135C55.7348 94.8135 55.7242 95.2815 55.639 96.0367H55.6337Z" fill="#BC5F50"/>
<path d="M52.3536 93.7815C52.3536 93.7815 43.1683 79.0226 43.2109 77.5175C43.2535 76.0124 46.885 73.752 46.885 73.752C46.885 73.752 45.7668 71.1565 46.885 68.9653C48.3706 66.0614 48.7114 64.4499 48.7114 64.4499C48.7114 64.4499 50.7135 67.8591 50.4473 71.0927C50.4473 71.0927 50.5431 67.5187 53.4665 65.3753C57.8168 62.1842 63.8073 64.4446 69.1321 59.9238C69.1321 59.9238 70.2183 62.8065 69.6326 65.7742C69.6326 65.7742 72.1512 66.4816 77.0341 64.3542C77.0341 64.3542 80.4047 69.6939 77.8754 74.7146C77.8754 74.7146 80.0959 74.5923 81.4271 73.7041C81.4271 73.7041 83.0671 81.1075 74.5474 84.3412L52.3589 93.7815H52.3536Z" fill="#46283D"/>
<path d="M78.3653 67.54C78.3653 67.54 74.0522 71.263 65.3994 72.3746C65.3994 72.3746 71.7625 74.369 78.6528 72.3746" stroke="#4F3749" stroke-width="0.5" stroke-miterlimit="10"/>
<path d="M80.7455 78.9801C80.7455 78.9801 74.7657 80.7884 67.5772 77.7834" stroke="#4F3749" stroke-width="0.5" stroke-miterlimit="10"/>
<path d="M58.8765 69.1834C66.9702 66.6624 72.3642 71.4012 74.7604 79.4641C77.1566 87.5323 77.066 96.8397 67.3057 98.7012C57.5453 100.563 52.3056 92.4945 50.5325 87.2664C48.7593 82.0383 49.2013 72.199 58.8765 69.1834Z" fill="#CE8565"/>
<path d="M60.4739 74.1029C58.5676 75.5655 56.5708 76.0974 56.5708 76.0974C63.3174 71.9862 61.6826 63.0298 61.6826 63.0298C58.7061 63.5138 55.836 63.6308 53.4611 65.3753C50.5378 67.5186 50.442 71.0927 50.442 71.0927C50.7082 67.859 48.7061 64.4498 48.7061 64.4498C48.7061 64.4498 48.3653 66.0613 46.8797 68.9653C45.7615 71.1565 46.8797 73.7519 46.8797 73.7519C46.8797 73.7519 43.2535 76.0123 43.2055 77.5174C43.1736 78.5599 47.5506 85.926 50.2556 90.3776C59.1693 87.2131 60.4686 74.1029 60.4686 74.1029H60.4739Z" fill="#4F3749"/>
<path d="M59.8136 77.5867C59.8136 77.5867 52.2471 80.8522 43.2268 77.6558C43.2268 77.6558 47.8914 83.9263 58.1523 82.3627" stroke="#46283D" stroke-width="0.5" stroke-miterlimit="10"/>
<path d="M67.0394 78.5813C67.0394 78.5813 67.7476 81.7192 69.4356 83.7403C69.4356 83.7403 71.5655 82.6553 72.0074 83.2776C72.4494 83.8998 72.0074 87.176 72.0074 87.176" stroke="#9B4840" stroke-width="0.75" stroke-miterlimit="10"/>
<path d="M71.6826 79.7833C71.8743 80.4215 71.64 81.0597 71.1661 81.198C70.6869 81.3416 70.1438 80.9374 69.9574 80.2992C69.7657 79.6609 70 79.0227 70.4739 78.8845C70.9531 78.7409 71.4963 79.1451 71.6826 79.7833Z" fill="#46283D"/>
<path d="M64.0575 82.2245C64.2492 82.8628 64.0149 83.501 63.541 83.6393C63.0618 83.7829 62.5186 83.3787 62.3323 82.7404C62.1406 82.1022 62.3749 81.464 62.8488 81.3257C63.3227 81.1874 63.8711 81.5863 64.0575 82.2245Z" fill="#46283D"/>
<path d="M59.9414 81.948C59.18 80.1929 60.3461 77.4698 62.3589 77.2517C61.9382 77.9591 61.4803 78.6239 61.1342 79.3738C60.7402 80.2301 60.3994 81.1183 59.9414 81.948Z" fill="#46283D"/>
<path d="M67.0394 75.789C67.6251 74.502 69.7338 74.3903 70.5431 75.4806C69.4941 75.8741 68.1416 75.9486 67.0394 75.789Z" fill="#46283D"/>
<path d="M65.1757 90.2341C65.1757 90.2341 68.8552 92.186 72.2045 89.8352" stroke="#9B4840" stroke-width="0.75" stroke-miterlimit="10"/>
<path d="M65.1384 85.8569C65.9691 87.7397 64.7604 90.0905 62.4388 91.117C60.1171 92.1381 57.5612 91.4414 56.7306 89.564C55.8999 87.6865 57.1086 85.3304 59.4302 84.3039C61.7519 83.2828 64.3078 83.9795 65.1384 85.8569Z" fill="#C6606C"/>
<path d="M75.8573 84.4847C75.639 82.8094 75.2556 81.1128 74.7657 79.464C74.6113 78.9428 74.4462 78.4429 74.2652 77.9482C72.7689 79.1343 72.1086 80.9585 72.7795 82.4796C73.2961 83.6497 74.4782 84.3624 75.8573 84.4847Z" fill="#C6606C"/>
<path d="M55.2769 95.0313L51.475 89.5692C51.475 89.5692 47.3429 84.4741 44.4143 88.2449C41.4856 92.0104 49.8988 99.4723 55.2769 95.0313Z" fill="#CE8565"/>
<path d="M47.1193 90.7658C46.5016 92.122 47.1779 94.1218 48.4132 95.6961C50.5911 96.68 53.1683 96.7704 55.2769 95.0313L51.475 89.5692C51.475 89.5692 48.2268 88.3299 47.1193 90.7711V90.7658Z" fill="#BC5F50"/>
<path d="M133.594 51.6483C133.594 51.6483 133.2 41.5431 142.497 38.4424C142.497 38.4424 141.581 47.3935 133.594 51.6483Z" fill="#7FC8A9"/>
<path d="M158.222 54.2597C158.222 54.2597 162.332 46.9308 170.261 48.7551C170.261 48.7551 165.73 54.7012 158.222 54.2597Z" fill="#409996"/>
<path d="M149.979 49.7495C149.979 49.7495 145.548 42.6067 150.99 36.5596C150.99 36.5596 154.004 43.4045 149.979 49.7495Z" fill="#409996"/>
<path d="M157.545 83.5541C157.545 83.5541 156.592 75.2094 164.095 72.0608C164.095 72.0608 163.898 79.5333 157.545 83.5541Z" fill="#7FC8A9"/>
<path d="M149.947 57.5838C149.947 57.5838 148.568 51.1537 154.175 48.1274C154.175 48.1274 154.59 53.9672 149.947 57.5838Z" fill="#7FC8A9"/>
<path d="M133.413 41.2559C133.413 41.2559 134.973 34.8683 141.342 34.5864C141.342 34.5864 139.169 40.022 133.413 41.2559Z" fill="#409996"/>
<path d="M103.541 67.1199C103.541 67.1199 100.367 61.3546 104.867 56.8499C104.867 56.8499 106.944 62.3226 103.541 67.1199Z" fill="#409996"/>
<path d="M91.7466 79.9641C91.7466 79.9641 93.4718 73.6192 99.8403 73.4968C99.8403 73.4968 97.5293 78.8739 91.7466 79.9641Z" fill="#409996"/>
<path d="M149.137 68.4813C149.137 68.4813 155.005 65.4976 159.372 70.13C159.372 70.13 153.829 72.0287 149.137 68.4813Z" fill="#409996"/>
<path d="M161.092 81.7352C161.092 81.7352 166.097 77.4591 171.427 80.9427C171.427 80.9427 166.486 84.0859 161.092 81.7352Z" fill="#409996"/>
<path d="M156.331 56.3657C156.331 56.3657 152.061 51.361 155.554 46.0425C155.554 46.0425 158.695 50.9834 156.331 56.3657Z" fill="#409996"/>
<path d="M152.593 63.6895C152.593 63.6895 158.482 55.4617 167.732 58.6954C167.732 58.6954 161.518 65.2106 152.593 63.6895Z" fill="#7FC8A9"/>
<path d="M154.425 86.1069C154.425 86.1069 162.551 80.0757 170.362 85.9793C170.362 85.9793 162.449 90.2873 154.425 86.1069Z" fill="#7FC8A9"/>
<path d="M133.594 37.5968C133.594 37.5968 133.259 29.0074 141.161 26.3694C141.161 26.3694 140.383 33.9802 133.594 37.5968Z" fill="#7FC8A9"/>
<path d="M107.503 39.8997C107.503 39.8997 102.22 33.1133 107.098 26.3694C107.098 26.3694 110.911 33.0069 107.503 39.8997Z" fill="#409996"/>
<path d="M122.982 30.2092C122.982 30.2092 132.599 33.3791 132.258 43.1545C132.258 43.1545 124.18 39.1709 122.982 30.2092Z" fill="#7FC8A9"/>
<path d="M94.1587 38.4956C94.1587 38.4956 103.797 35.4055 109.286 43.5109C109.286 43.5109 100.405 45.0373 94.1587 38.4956Z" fill="#409996"/>
<path d="M84.8669 63.3862C84.8669 63.3862 93.9244 58.8708 100.58 66.0508C100.58 66.0508 92.0341 68.9015 84.8669 63.3862Z" fill="#409996"/>
<path d="M97.0607 48.3402C97.0607 48.3402 105.362 42.5483 112.998 48.6806C112.998 48.6806 104.963 52.7546 97.0607 48.3402Z" fill="#7FC8A9"/>
<path d="M126.55 45.5957C126.55 45.5957 133.014 49.7016 130.943 56.8178C130.943 56.8178 125.761 52.3928 126.55 45.5957Z" fill="#409996"/>
<path d="M95.2396 28.502C95.2396 28.502 102.859 29.2785 104.207 36.5595C104.207 36.5595 97.5879 34.9267 95.2396 28.502Z" fill="#7FC8A9"/>
<path d="M83.7487 55.4671C83.7487 55.4671 91.1289 53.4088 95.0426 59.6953C95.0426 59.6953 88.2854 60.5941 83.7487 55.4671Z" fill="#7FC8A9"/>
<path d="M111.299 33.1345C111.299 33.1345 115.847 39.2934 111.352 45.181C111.352 45.181 108.115 39.187 111.299 33.1345Z" fill="#7FC8A9"/>
<path d="M98.2961 51.6482C98.2961 51.6482 102.843 57.807 98.3493 63.6946C98.3493 63.6946 95.1118 57.7007 98.2961 51.6482Z" fill="#7FC8A9"/>
<path d="M89.606 67.6571C89.606 67.6571 97.1406 66.2583 100.479 72.8693C100.479 72.8693 93.6688 73.1671 89.606 67.6571Z" fill="#7FC8A9"/>
<path d="M127.982 18.7319C127.982 18.7319 136.017 24.8855 132.471 34.0067C132.471 34.0067 126.155 27.5873 127.982 18.7319Z" fill="#409996"/>
<path d="M161.912 34.3364C161.912 34.3364 166.688 43.2556 159.686 50.1005C159.686 50.1005 156.587 41.6494 161.912 34.3364Z" fill="#7FC8A9"/>
<path d="M119.02 35.5544C119.02 35.5544 122.801 44.9363 115.096 50.9835C115.096 50.9835 112.934 42.2451 119.02 35.5544Z" fill="#409996"/>
<path d="M88.1203 45.8245C88.1203 45.8245 97.2311 50.2388 95.5964 59.8866C95.5964 59.8866 88.1203 54.8659 88.1203 45.8245Z" fill="#409996"/>
<path d="M141.896 43.2715C141.896 43.2715 151.219 47.2178 150.08 56.9348C150.08 56.9348 142.354 52.3023 141.896 43.2715Z" fill="#409996"/>
<path d="M155.069 73.5872C155.069 73.5872 157.966 83.2775 149.739 88.5907C149.739 88.5907 148.392 79.6928 155.069 73.5872Z" fill="#409996"/>
<path d="M103.679 70.747C105.213 72.2095 92.3003 72.4755 92.3003 72.4755L92.5666 74.9858C92.5666 74.9858 104.947 73.7945 106.278 73.7998C107.609 73.7998 122.599 86.511 123.424 87.5375C124.249 88.564 125.714 96.8077 125.714 110.769V194.424C126.821 194.238 127.891 194.131 128.924 194.131C129.744 194.131 130.58 194.195 131.438 194.312V123.794C131.438 112.625 131.305 103.727 132.37 101.195C133.435 98.6639 143.685 95.3291 146.081 93.7389C148.477 92.1487 163.919 80.2246 163.919 80.2246L162.854 79.1608C162.854 79.1608 149.675 88.7235 146.48 89.9043C143.285 91.085 134.223 95.0739 133.03 95.1377C131.837 95.2068 133.301 88.0853 134.233 85.1282C135.165 82.1711 147.678 70.8693 150.474 68.0771C153.269 65.2848 163.919 44.5426 163.919 44.5426L162.854 43.4789C162.854 43.4789 154.734 56.6422 153.269 59.3015C151.805 61.9608 148.876 44.8085 148.876 44.8085L147.013 45.0745C147.013 45.0745 149.675 58.5037 150.208 59.7004C150.74 60.8971 151.672 62.3596 151.006 63.4234C150.341 64.4871 134.489 80.0012 133.03 80.8841C131.571 81.7669 132.902 67.3218 133.967 58.1899C135.032 49.058 134.499 30.5762 134.499 30.5762H131.432C131.432 30.5762 131.826 45.0691 131.432 48.5262C131.038 51.9832 128.642 70.0662 128.243 71.5288C127.843 72.9914 125.927 64.8806 123.424 60.094C120.921 55.3073 103.679 33.9002 103.679 33.9002L101.752 35.2299C101.752 35.2299 118.392 59.2962 120.122 61.9554C121.853 64.6147 123.424 82.7774 123.424 82.7774C123.424 82.7774 112.247 74.321 108.131 70.864C104.015 67.4069 90.9691 54.3765 90.9691 54.3765L89.5048 55.5732C89.5048 55.5732 102.146 69.2684 103.679 70.731V70.747Z" fill="#46283D"/>
<mask id="mask0_1_207" style="mask-type:luminance" maskUnits="userSpaceOnUse" x="89" y="30" width="75" height="165">
<path d="M103.679 70.747C105.213 72.2095 92.3003 72.4755 92.3003 72.4755L92.5666 74.9858C92.5666 74.9858 104.947 73.7945 106.278 73.7998C107.609 73.7998 122.599 86.511 123.424 87.5375C124.249 88.564 125.714 96.8077 125.714 110.769V194.424C126.821 194.238 127.891 194.131 128.924 194.131C129.744 194.131 130.58 194.195 131.438 194.312V123.794C131.438 112.625 131.305 103.727 132.37 101.195C133.435 98.6639 143.685 95.3291 146.081 93.7389C148.477 92.1487 163.919 80.2246 163.919 80.2246L162.854 79.1608C162.854 79.1608 149.675 88.7235 146.48 89.9043C143.285 91.085 134.223 95.0739 133.03 95.1377C131.837 95.2068 133.301 88.0853 134.233 85.1282C135.165 82.1711 147.678 70.8693 150.474 68.0771C153.269 65.2848 163.919 44.5426 163.919 44.5426L162.854 43.4789C162.854 43.4789 154.734 56.6422 153.269 59.3015C151.805 61.9608 148.876 44.8085 148.876 44.8085L147.013 45.0745C147.013 45.0745 149.675 58.5037 150.208 59.7004C150.74 60.8971 151.672 62.3596 151.006 63.4234C150.341 64.4871 134.489 80.0012 133.03 80.8841C131.571 81.7669 132.902 67.3218 133.967 58.1899C135.032 49.058 134.499 30.5762 134.499 30.5762H131.432C131.432 30.5762 131.826 45.0691 131.432 48.5262C131.038 51.9832 128.642 70.0662 128.243 71.5288C127.843 72.9914 125.927 64.8806 123.424 60.094C120.921 55.3073 103.679 33.9002 103.679 33.9002L101.752 35.2299C101.752 35.2299 118.392 59.2962 120.122 61.9554C121.853 64.6147 123.424 82.7774 123.424 82.7774C123.424 82.7774 112.247 74.321 108.131 70.864C104.015 67.4069 90.9691 54.3765 90.9691 54.3765L89.5048 55.5732C89.5048 55.5732 102.146 69.2684 103.679 70.731V70.747Z" fill="white"/>
</mask>
<g mask="url(#mask0_1_207)">
<path d="M89.2971 69.5928C92.3056 71.3267 95.9105 72.5659 99.3397 71.3533C102.29 70.3108 104.42 67.8058 106.06 65.2529C110.128 58.9132 111.912 51.3928 115.985 45.0638C118.371 41.3621 122.103 38.405 126.299 37.0275C130.66 35.5915 135.415 35.9851 139.59 37.8253C148.419 41.7185 154.068 51.2652 153.126 60.8651C151.986 72.4648 144.883 82.203 137.636 90.8722C134.063 95.143 130.357 99.2968 126.965 103.716C123.573 108.136 120.511 113.045 118.056 118.146C115.602 123.246 113.36 129.421 114.654 135.234C115.138 137.42 116.374 139.425 118.243 140.696C119.968 141.866 122.055 142.355 124.095 142.6C128.722 143.153 133.403 142.6 137.934 143.94C139.649 144.451 141.608 145.355 142.077 147.254C142.705 149.796 140.895 152.535 139.59 154.551C137.758 157.375 135.66 160.008 133.647 162.704C131.635 165.401 129.856 168.092 128.296 171.028C126.869 173.714 125.602 176.479 124.441 179.287C122.806 183.239 121.353 187.308 120.453 191.499C119.771 194.663 119.121 198.519 120.532 201.583C121.06 202.737 121.944 203.646 123.11 204.157C123.344 204.258 123.546 203.917 123.312 203.811C120.245 202.471 119.989 198.695 120.208 195.791C120.522 191.589 121.805 187.451 123.232 183.51C124.515 179.957 126.001 176.468 127.684 173.081C128.472 171.496 129.292 169.921 130.208 168.411C131.991 165.464 134.116 162.747 136.193 160.002C138.174 157.38 140.319 154.689 141.693 151.684C142.433 150.067 143.03 148.068 142.183 146.371C141.427 144.855 139.755 144.079 138.216 143.6C136.038 142.925 133.69 142.632 131.422 142.531C127.125 142.345 122.013 142.877 118.312 140.244C113.312 136.691 114.42 129.197 116.038 124.182C117.875 118.497 120.937 113.056 124.281 108.115C127.439 103.445 131.118 99.1638 134.771 94.8824C141.901 86.5217 149.356 77.794 152.364 66.9974C153.733 62.0778 154.164 56.972 152.646 52.0364C151.31 47.6965 148.679 43.7661 145.192 40.8515C141.901 38.0965 137.849 36.2351 133.557 35.8255C128.978 35.3894 124.43 36.7616 120.751 39.4953C117.673 41.7823 115.564 44.6756 113.855 48.0581C112.146 51.4407 110.724 55.0786 109.132 58.5782C106.565 64.2158 102.62 72.385 95.1278 71.3586C93.1257 71.082 91.2513 70.247 89.5154 69.2471C89.2918 69.1195 89.0894 69.4652 89.3131 69.5928H89.2971Z" fill="#754C6C"/>
<path d="M116.645 150.158C116.15 151.035 118.333 150.902 118.669 150.892C120.048 150.865 121.491 150.849 122.854 150.658C125.288 150.317 128.003 149.918 130.41 150.594C131.438 150.881 132.433 151.487 132.609 152.626C132.859 154.221 131.88 155.976 130.708 156.965C129.159 158.274 127.242 159.029 125.527 160.087C124.547 160.694 123.738 161.555 122.934 162.369C121.997 163.316 121.102 164.3 120.224 165.294C116.773 169.187 113.775 173.703 113.152 178.979C113.12 179.234 113.52 179.229 113.552 178.979C114.127 174.112 116.826 169.756 120.011 166.135C120.889 165.135 121.773 164.145 122.694 163.183C123.568 162.279 124.467 161.236 125.532 160.555C127.162 159.508 128.978 158.774 130.538 157.609C131.842 156.63 132.721 155.317 132.982 153.689C133.136 152.727 132.945 151.748 132.199 151.072C130.511 149.546 127.513 149.791 125.431 149.966C124.159 150.073 122.902 150.291 121.624 150.349C120.714 150.392 119.803 150.461 118.887 150.487C118.695 150.493 116.96 150.408 116.991 150.36C117.119 150.136 116.773 149.934 116.645 150.158Z" fill="#754C6C"/>
<path d="M123.647 192.908C128.131 186.483 131.086 179.106 135.841 172.857C137.194 171.076 138.695 169.416 140.394 167.954C140.591 167.783 140.304 167.507 140.112 167.672C134.111 172.852 130.708 180.255 126.853 187.01C125.745 188.951 124.585 190.871 123.307 192.706C123.158 192.919 123.504 193.115 123.653 192.908H123.647Z" fill="#754C6C"/>
<path d="M127.907 201.95C131.624 194.791 135.474 187.696 139.888 180.941C140.027 180.723 139.686 180.527 139.542 180.739C135.128 187.494 131.278 194.589 127.561 201.747C127.444 201.976 127.79 202.178 127.907 201.95Z" fill="#754C6C"/>
<path d="M134.734 103.935C132.173 110.343 125.825 114.779 124.207 121.64C123.509 124.602 124.031 127.9 125.974 130.299C127.918 132.697 130.698 133.857 133.472 134.681C136.794 135.665 140.245 136.058 143.653 136.622C143.903 136.665 144.015 136.282 143.759 136.239C140.884 135.766 137.987 135.41 135.149 134.718C132.311 134.027 129.228 132.974 127.039 130.873C124.718 128.639 123.871 125.273 124.494 122.151C125.154 118.848 127.162 115.97 129.116 113.306C131.283 110.354 133.733 107.477 135.106 104.041C135.202 103.802 134.814 103.701 134.723 103.935H134.734Z" fill="#754C6C"/>
<path d="M134.191 111.965C133.898 115.731 130.399 118.209 129.223 121.645C128.046 125.081 129.909 128.15 132.673 130.123C134.292 131.277 136.15 132.112 138.067 132.633C138.317 132.702 138.424 132.314 138.174 132.25C134.989 131.383 131.374 129.522 129.846 126.442C128.104 122.922 130.564 119.757 132.471 116.949C133.498 115.438 134.446 113.827 134.59 111.965C134.611 111.71 134.212 111.71 134.191 111.965Z" fill="#754C6C"/>
<path d="M117.721 107.088C121.917 105.041 125.234 101.467 128.067 97.8448C130.9 94.2229 133.498 90.0106 135.974 85.942C138.85 81.2244 141.182 76.0708 142.178 70.614C142.998 66.1252 142.774 61.5406 141.709 57.1103C140.852 53.5415 139.361 49.6909 136.353 47.3827C133.605 45.2712 129.787 44.9255 126.837 46.8083C123.887 48.691 121.928 52.1215 120.394 55.2435C118.568 58.9664 117.013 62.8277 115.41 66.6517C111.555 75.8421 107.386 85.0431 100.181 92.1487C99.2386 93.0741 98.2588 93.9623 97.2471 94.8079C97.0501 94.9728 97.3323 95.2547 97.5293 95.0898C101.251 91.9785 104.446 88.3193 107.103 84.2666C109.76 80.2139 111.773 76.0495 113.674 71.7256C115.575 67.4016 117.189 63.3383 119.026 59.1792C120.479 55.8923 121.954 52.4938 124.26 49.7016C125.309 48.4358 126.555 47.2816 128.062 46.5902C129.734 45.8244 131.56 45.7978 133.317 46.2924C137.141 47.3667 139.334 51.0525 140.554 54.5787C141.901 58.4824 142.492 62.7904 142.231 66.907C141.885 72.3744 140.021 77.6451 137.487 82.4636C136.31 84.6974 134.957 86.8248 133.637 88.9735C132.449 90.9095 131.214 92.8188 129.909 94.6803C127.183 98.5575 124.089 102.413 120.181 105.168C119.334 105.764 118.45 106.296 117.519 106.748C117.29 106.86 117.492 107.205 117.721 107.094V107.088Z" fill="#754C6C"/>
<path d="M108.355 91.1487C110.873 90.1382 112.721 87.931 114.27 85.7877C115.99 83.405 117.407 80.8308 118.951 78.3364C120.085 76.5015 121.358 74.7677 122.827 73.1881C124.143 71.7734 125.793 70.0608 127.742 69.5874C130 69.0343 130.698 71.55 130.905 73.2944C131.209 75.858 130.884 78.3949 129.835 80.7563C127.748 85.4685 123.674 89.0373 119.973 92.4837C115.969 96.212 111.48 100.18 109.707 105.53C109.627 105.775 110.011 105.881 110.091 105.636C111.757 100.616 115.9 96.8289 119.659 93.3187C123.419 89.8085 127.588 86.245 129.899 81.5435C130.974 79.3576 131.518 76.9802 131.395 74.5443C131.31 72.8317 131.113 69.864 129.111 69.2098C127.513 68.6886 125.777 69.9704 124.622 70.9171C122.897 72.3318 121.416 74.0603 120.112 75.858C118.568 77.9801 117.327 80.2989 115.948 82.5274C114.324 85.1494 112.529 87.9523 109.989 89.7872C109.446 90.1808 108.866 90.5158 108.243 90.7658C108.009 90.8615 108.11 91.2445 108.349 91.1487H108.355Z" fill="#754C6C"/>
<path d="M139.909 100.584C142.327 93.9305 146.246 87.9206 148.429 81.1714C148.509 80.9267 148.12 80.8203 148.046 81.065C145.863 87.8142 141.944 93.8241 139.526 100.478C139.441 100.717 139.824 100.823 139.909 100.584Z" fill="#754C6C"/>
<path d="M148.408 97.4407C150.17 94.0794 151.874 90.6809 153.349 87.1813C154.734 83.8997 156.076 80.4374 156.422 76.8633C156.448 76.6081 156.049 76.6081 156.022 76.8633C155.676 80.4693 154.281 83.9848 152.87 87.293C151.459 90.6011 149.771 93.9783 148.062 97.2386C147.945 97.4673 148.285 97.6694 148.408 97.4407Z" fill="#754C6C"/>
</g>
<path d="M129.744 197.679C129.744 197.679 134.377 176.809 144.585 163.848C152.407 153.908 157.444 163.3 153.552 170.352C145.82 184.356 132.636 198.088 132.636 198.088L129.75 197.684L129.744 197.679Z" fill="#A0D8B4"/>
<path d="M149.712 164.305C149.712 164.305 139.989 177.091 131.315 197.902" stroke="#7FC8A9" stroke-width="0.5" stroke-miterlimit="10"/>
<path d="M127.966 199.572C127.966 199.572 125.799 178.309 117.178 164.241C110.57 153.461 104.468 162.199 107.513 169.656C113.557 184.462 125.053 199.636 125.053 199.636L127.971 199.572H127.966Z" fill="#A0D8B4"/>
<path d="M112.029 164.098C112.029 164.098 120.192 177.926 126.379 199.604" stroke="#7FC8A9" stroke-width="0.5" stroke-miterlimit="10"/>
<path d="M131.64 198.604C131.64 198.604 141.954 182.941 154.361 175.495C163.871 169.783 165.075 179.048 159.681 183.617C148.972 192.69 133.882 199.833 133.882 199.833L131.64 198.604Z" fill="#7FC8A9"/>
<path d="M158.424 177.469C158.424 177.469 146.464 184.92 132.859 199.274" stroke="#A0D8B4" stroke-width="0.5" stroke-miterlimit="10"/>
<path d="M126.55 202.636C126.55 202.636 119.063 185.446 108.104 175.995C99.7071 168.751 96.9436 177.671 101.475 183.09C110.474 193.85 124.132 203.465 124.132 203.465L126.55 202.636Z" fill="#7FC8A9"/>
<path d="M103.77 177.245C103.77 177.245 114.281 186.622 125.234 203.088" stroke="#A0D8B4" stroke-width="0.5" stroke-miterlimit="10"/>
<path d="M63.2854 222.756C82.8488 222.756 111.416 194.137 128.919 194.137C146.422 194.137 173.445 222.756 194.808 222.756H63.2854Z" fill="#4F3749"/>
<path d="M188.014 219.384L166.55 191.876C166.55 191.876 167.061 189.61 169.329 189.254L188.573 210.853L188.019 219.389L188.014 219.384Z" fill="#87AEC6"/>
<path d="M168.147 190.807C164.899 193.254 160.698 193.153 158.754 190.584L170.511 181.723C172.455 184.292 171.395 188.361 168.152 190.807H168.147Z" fill="#A9D5E0"/>
<path d="M158.706 190.52C159.02 190.94 161.917 189.318 165.181 186.893C168.445 184.468 170.831 182.159 170.517 181.739C170.202 181.319 167.306 182.941 164.042 185.366C160.777 187.792 158.392 190.1 158.706 190.52Z" fill="#87AEC6"/>
<path d="M217.178 188.792C217.178 188.792 225.266 184.494 229.212 190.222C233.158 195.95 229.606 201.886 226.044 203.992C222.481 206.098 216.992 208.555 217.007 212.736" stroke="#A9D5E0" stroke-width="3" stroke-miterlimit="10"/>
<path d="M216.129 187.829L218.222 187.818V189.568C218.222 189.568 216.4 192.009 216.539 194.1L216.134 187.824L216.129 187.829Z" fill="#87AEC6"/>
<path d="M187.157 222.346C187.157 222.346 193.264 223.628 202.764 223.585C212.087 223.548 218.36 222.218 218.36 222.218L216.129 187.829L189.111 187.941L187.157 222.346Z" fill="#A9D5E0"/>
<path d="M216.672 196.2L188.514 196.317" stroke="#87AEC6" stroke-width="0.75" stroke-miterlimit="10"/>
<path d="M216.794 198.115L188.52 198.226" stroke="#87AEC6" stroke-width="0.75" stroke-miterlimit="10"/>
<path d="M216.96 200.641L188.307 200.758" stroke="#87AEC6" stroke-width="0.75" stroke-miterlimit="10"/>
<path d="M200.378 194.174L204.909 194.153L205.16 170.299L199.931 170.32L200.378 194.174Z" fill="#87AEC6"/>
<path d="M201.241 191.733C201.241 192.504 201.869 193.121 202.641 193.121C203.413 193.121 204.031 192.493 204.031 191.722C204.031 190.951 203.403 190.334 202.63 190.334C201.858 190.334 201.241 190.962 201.241 191.733Z" fill="#A9D5E0"/>
<path d="M201.763 191.727C201.763 192.206 202.157 192.594 202.636 192.594C203.115 192.594 203.504 192.201 203.504 191.722C203.504 191.243 203.11 190.855 202.63 190.855C202.151 190.855 201.763 191.249 201.763 191.727Z" fill="#87AEC6"/>
<path d="M107.913 96.9726C107.913 96.9726 106.747 94.6644 108.301 92.5051C111.262 88.3938 110.586 85.2081 111.113 84.4635C112.284 82.82 113.461 86.0431 113.051 89.5054C112.758 91.9998 121.528 85.1921 123.584 85.4048C125.639 85.6176 118.009 90.0585 117.977 91.0425C117.945 92.0264 125.799 86.8462 127.252 87.1068C128.701 87.3674 119.862 93.1646 119.925 94.0262C119.989 94.8824 127.007 90.5266 127.785 91.1223C128.562 91.7179 121.768 94.9622 121.704 95.6962C121.64 96.4301 126.502 94.1591 127.396 94.9835C128.296 95.8079 116.56 100.6 111.55 102.174L105.682 106.275L101.283 100.706L107.913 96.9779V96.9726Z" fill="#CE8565"/>
<path d="M63.2322 128.719C70.5378 130.245 78.4398 132.373 84.0202 129.096C91.3685 124.783 112.556 104.073 112.556 104.073C111.853 100.259 106.688 96.1428 106.688 96.1428C104.004 97.382 81.6134 112.013 79.6805 112.455C77.7529 112.896 59.5208 108.849 53.4611 107.769C48.2322 106.838 44.6379 109.099 42.9074 113.221C41.1768 117.342 43.7274 125.139 63.2322 128.724V128.719Z" fill="#E5B370"/>
<path d="M110.293 106.264C111.709 104.902 112.561 104.073 112.561 104.073C111.858 100.259 106.693 96.1428 106.693 96.1428C106.219 96.3609 105.133 96.9938 103.658 97.8926C105.437 99.4616 108.642 102.621 110.293 106.264Z" fill="white"/>
<path d="M78.312 124.023C78.312 124.023 75.9105 118.789 79.6858 112.455" stroke="#F4F0ED" stroke-width="0.5" stroke-miterlimit="10"/>
<path d="M74.6912 121.517C74.6912 121.517 74.7444 117.481 77.2417 113.481" stroke="#F4F0ED" stroke-width="0.5" stroke-miterlimit="10"/>
<path d="M80.0852 130.527C81.4856 130.261 82.8115 129.809 84.0256 129.096C87.0128 127.341 92.2897 122.879 97.4974 118.199" stroke="#F4F0ED" stroke-width="0.5" stroke-miterlimit="10"/>
<path d="M84.4675 109.817C81.9915 111.311 80.1757 112.343 79.6805 112.455C77.7529 112.896 59.5208 108.849 53.4611 107.769C48.2322 106.838 44.6379 109.099 42.9074 113.221C41.1768 117.343 43.7274 125.139 63.2322 128.724C66.885 129.485 70.6869 130.4 74.2758 130.713" stroke="#F4F0ED" stroke-width="0.5" stroke-miterlimit="10"/>
<path d="M235 221.899H0V225H235V221.899Z" fill="#272733"/>
</g>
<defs>
<clipPath id="clip0_1_207">
<rect width="235" height="225" fill="white"/>
</clipPath>
</defs>
</svg>
